<svg width="369.238" height="72.022" viewBox="0 0 369.238 72.022" xmlns="http://www.w3.org/2000/svg"><g id="svgGroup" stroke-linecap="round" fill-rule="evenodd" font-size="9pt" stroke="#000000" stroke-width="0.25mm" fill="#ffffff" style="stroke:#000000;stroke-width:0.25mm;fill:#ffffff"><path d="M 333.008 29.639 L 311.035 29.639 L 311.035 72.021 L 301.416 72.021 L 301.416 29.639 L 279.395 29.639 L 279.395 72.021 L 269.824 72.021 L 269.824 20.02 L 279.395 20.02 L 279.395 29.199 A 9.62 9.62 0 0 1 280.273 25.61 Q 281.055 23.926 282.349 22.681 A 9.568 9.568 0 0 1 285.352 20.728 Q 287.061 20.02 289.014 20.02 L 301.416 20.02 Q 303.32 20.02 305.029 20.728 Q 306.738 21.436 308.057 22.681 A 9.812 9.812 0 0 1 310.181 25.61 Q 310.986 27.295 311.035 29.199 Q 311.133 27.295 311.89 25.61 Q 312.646 23.926 313.94 22.681 A 9.568 9.568 0 0 1 316.943 20.728 Q 318.652 20.02 320.605 20.02 L 333.008 20.02 Q 335.01 20.02 336.768 20.776 A 9.681 9.681 0 0 1 339.819 22.827 A 9.681 9.681 0 0 1 341.87 25.879 Q 342.627 27.637 342.627 29.639 L 342.627 72.021 L 333.008 72.021 L 333.008 29.639 Z M 26.807 72.021 L 16.797 72.021 L 0 20.02 L 9.717 20.02 L 22.021 59.229 L 33.496 20.02 L 43.311 20.02 L 54.785 59.229 L 67.09 20.02 L 76.807 20.02 L 60.01 72.021 L 50 72.021 L 38.379 33.838 L 26.807 72.021 Z M 132.813 29.639 L 132.813 72.021 L 123.193 72.021 L 123.193 29.639 L 96.387 29.639 L 96.387 72.021 L 86.816 72.021 L 86.816 0 L 96.387 0 L 96.387 29.199 A 9.62 9.62 0 0 1 97.266 25.61 Q 98.047 23.926 99.341 22.681 A 9.568 9.568 0 0 1 102.344 20.728 Q 104.053 20.02 106.006 20.02 L 123.193 20.02 Q 125.195 20.02 126.953 20.776 A 9.681 9.681 0 0 1 130.005 22.827 A 9.681 9.681 0 0 1 132.056 25.879 Q 132.813 27.637 132.813 29.639 Z M 209.814 62.402 L 209.814 49.316 A 9.319 9.319 0 0 1 210.394 46.019 A 8.893 8.893 0 0 1 210.571 45.581 A 10.064 10.064 0 0 1 212.622 42.529 A 9.48 9.48 0 0 1 215.674 40.454 A 9.285 9.285 0 0 1 219.385 39.697 L 244.189 39.697 L 244.189 29.639 L 212.793 29.639 L 212.793 20.02 L 244.189 20.02 Q 246.191 20.02 247.949 20.776 A 9.681 9.681 0 0 1 251.001 22.827 A 9.681 9.681 0 0 1 253.052 25.879 Q 253.809 27.637 253.809 29.639 L 253.809 72.021 L 244.189 72.021 L 244.189 63.232 A 8.976 8.976 0 0 1 243.213 66.65 Q 242.383 68.262 241.089 69.458 Q 239.795 70.654 238.135 71.338 Q 236.475 72.021 234.619 72.021 L 219.385 72.021 A 9.285 9.285 0 0 1 215.674 71.265 A 9.681 9.681 0 0 1 212.622 69.214 A 9.681 9.681 0 0 1 210.571 66.162 Q 209.814 64.404 209.814 62.402 Z M 193.799 29.639 L 193.799 62.402 Q 193.799 64.404 193.042 66.162 A 9.681 9.681 0 0 1 190.991 69.214 A 9.758 9.758 0 0 1 187.964 71.265 A 9.201 9.201 0 0 1 184.353 72.021 A 10.524 10.524 0 0 1 184.229 72.021 L 158.398 72.021 A 9.285 9.285 0 0 1 154.688 71.265 A 9.681 9.681 0 0 1 151.636 69.214 A 9.681 9.681 0 0 1 149.585 66.162 Q 148.828 64.404 148.828 62.402 L 148.828 29.639 Q 148.828 27.637 149.585 25.879 A 9.681 9.681 0 0 1 151.636 22.827 A 9.681 9.681 0 0 1 154.688 20.776 A 9.285 9.285 0 0 1 158.398 20.02 L 184.229 20.02 A 9.319 9.319 0 0 1 187.526 20.599 A 8.893 8.893 0 0 1 187.964 20.776 A 9.758 9.758 0 0 1 190.991 22.827 A 9.681 9.681 0 0 1 193.042 25.879 Q 193.799 27.637 193.799 29.639 Z M 359.131 20.02 L 368.75 20.02 L 368.75 72.021 L 359.131 72.021 L 359.131 20.02 Z M 184.229 29.639 L 158.398 29.639 L 158.398 62.402 L 184.229 62.402 L 184.229 29.639 Z M 219.385 49.316 L 219.385 62.402 L 244.189 62.402 L 244.189 49.316 L 219.385 49.316 Z M 358.643 10.01 L 358.643 0 L 369.238 0 L 369.238 10.01 L 358.643 10.01 Z" vector-effect="non-scaling-stroke"/></g></svg>